<?xml version="1.0" standalone="no"?>
<!DOCTYPE svg PUBLIC "-//W3C//DTD SVG 1.1//EN" "http://www.w3.org/Graphics/SVG/1.1/DTD/svg11.dtd" >
<svg xmlns="http://www.w3.org/2000/svg">
<metadata>
Created by FontForge 20120731 at Fri Mar 17 11:16:08 2017
 By admin
</metadata>
<defs>
<font id="iconfont" horiz-adv-x="1024" >
  <font-face 
    font-family="iconfont"
    font-weight="500"
    font-stretch="normal"
    units-per-em="1024"
    panose-1="2 0 6 3 0 0 0 0 0 0"
    ascent="896"
    descent="-128"
    x-height="792"
    bbox="-0.713043 -212 1779.95 896"
    underline-thickness="50"
    underline-position="-100"
    unicode-range="U+0078-E6DF"
  />
<missing-glyph horiz-adv-x="374" 
d="M34 0v682h272v-682h-272zM68 34h204v614h-204v-614z" />
    <glyph glyph-name=".notdef" horiz-adv-x="374" 
d="M34 0v682h272v-682h-272zM68 34h204v614h-204v-614z" />
    <glyph glyph-name=".null" horiz-adv-x="0" 
 />
    <glyph glyph-name="nonmarkingreturn" horiz-adv-x="341" 
 />
    <glyph glyph-name="x" unicode="x" horiz-adv-x="1001" 
d="M281 543q-27 -1 -53 -1h-83q-18 0 -36.5 -6t-32.5 -18.5t-23 -32t-9 -45.5v-76h912v41q0 16 -0.5 30t-0.5 18q0 13 -5 29t-17 29.5t-31.5 22.5t-49.5 9h-133v-97h-438v97zM955 310v-52q0 -23 0.5 -52t0.5 -58t-10.5 -47.5t-26 -30t-33 -16t-31.5 -4.5q-14 -1 -29.5 -0.5
t-29.5 0.5h-32l-45 128h-439l-44 -128h-29h-34q-20 0 -45 1q-25 0 -41 9.5t-25.5 23t-13.5 29.5t-4 30v167h911zM163 247q-12 0 -21 -8.5t-9 -21.5t9 -21.5t21 -8.5q13 0 22 8.5t9 21.5t-9 21.5t-22 8.5zM316 123q-8 -26 -14 -48q-5 -19 -10.5 -37t-7.5 -25t-3 -15t1 -14.5
t9.5 -10.5t21.5 -4h37h67h81h80h64h36q23 0 34 12t2 38q-5 13 -9.5 30.5t-9.5 34.5q-5 19 -11 39h-368zM336 498v228q0 11 2.5 23t10 21.5t20.5 15.5t34 6h188q31 0 51.5 -14.5t20.5 -52.5v-227h-327z" />
    <glyph glyph-name="uniE601" unicode="&#xe601;" horiz-adv-x="1821" 
d="M91 479v-150l-88 -205q-6 -16 0 -30.5t22 -21.5q15 -6 31 0.5t22 21.5l13 33v-38q0 -16 12 -28t29 -12q16 0 28 12t12 28v37l14 -32q6 -15 21.5 -21.5t31.5 -0.5q15 7 21.5 22t0.5 30l-89 205v121l290 -102v-307q1 -40 39.5 -73t105.5 -55q129 -41 297 -41t296 41
q67 22 105.5 55t39.5 73v307l390 137q30 11 41 39q9 26 -2.5 50t-38.5 33l-808 285q-25 8 -46 0l-808 -285q-29 -9 -40 -39q-10 -25 1.5 -49.5t38.5 -33.5zM480 481l-187 66l612 214l610 -214l-187 -66q-33 48 -127 79q-124 42 -296 42t-297 -42q-94 -30 -128 -79zM1265 149
q-32 17 -64 26q-122 42 -296 42q-175 0 -297 -42q-37 -12 -65 -26v280q0 13 24.5 28t66.5 29q110 36 271 36t271 -36q42 -14 66 -29t24 -28v-280h-1zM1175 102q88 -29 90 -57v-2q-2 -27 -90 -56q-107 -37 -271 -37q-163 0 -271 37q-88 29 -90 56v2q2 28 90 57q115 37 271 37
q154 1 271 -37z" />
    <glyph glyph-name="uniE605" unicode="&#xe605;" 
d="M320 32v864h480v-224h224v-640h-704zM928 576h-512v-32h512v32zM928 448h-512v-32h512v32zM928 320h-512v-32h512v32zM928 192h-512v-32h512v32zM832 896h19l173 -160v-32h-192v192zM288 0h416v-128h-704v864h288v-320h-192v-32h192v-96h-192v-32h192v-96h-192v-32h192
v-96h-192v-32h192z" />
    <glyph glyph-name="uniE607" unicode="&#xe607;" 
d="M667 632v88q0 16 -14.5 30.5t-29.5 14.5h-244q-16 0 -30 -14t-14 -31v-88h-133q-25 0 -46 -21.5t-21 -45.5v-110h753v110q0 25 -20.5 46t-45.5 21h-155zM600 632h-199v44q0 10 6 16t16 6h155q10 0 16 -6t6 -16v-44zM511 322q15 0 25 8.5t14 24t5 27t1 28.5h-111
q1 -14 1 -20t2.5 -22t7 -24t13 -15t21.5 -7h21zM600 410q1 -2 2 -7t2 -19t0 -26.5t-7.5 -27.5t-17 -26.5t-31 -19t-47.5 -7.5q-39 0 -63.5 14t-32 33.5t-9 39t1 33t3.5 13.5h-266v-310q0 -26 20 -46t47 -20h620q26 0 46 19.5t20 46.5v310h-288z" />
    <glyph glyph-name="uniE608" unicode="&#xe608;" 
d="M1024 -31l-214 215q86 118 86 264q0 91 -35.5 174t-95.5 143t-143 95.5t-174 35.5t-174 -35.5t-143 -95.5t-95.5 -143t-35.5 -174t35.5 -174t95.5 -143t143 -95.5t174 -35.5q147 0 264 87l215 -215zM448 129q-132 0 -225.5 93.5t-93.5 226t93.5 225.5t225.5 93t225.5 -93
t93.5 -225.5t-93.5 -226t-225.5 -93.5z" />
    <glyph glyph-name="uniE609" unicode="&#xe609;" 
d="M937 -7l-177 178l23 24l-23 23l-71 -71l-119 119l143 142q28 -10 59 -10q72 0 124 52q38 38 48.5 91t-11.5 103l-10 22l-76 -76l-62 -1l1 59l78 78l-23 9q-33 15 -70 15q-73 0 -124 -51q-36 -37 -47.5 -86.5t6.5 -97.5l-143 -143l-201 202l24 24l-131 130l-71 -71
l130 -130l24 23l202 -201l-143 -143q-28 11 -59 11q-73 0 -124 -52q-39 -38 -49 -91t12 -103l9 -23l78 78l59 1l-1 -62l-76 -76l22 -10q34 -14 70 -14q73 0 125 51q36 36 47 86t-6 98l142 142l119 -118l-71 -72l23 -23l24 23l178 -177q25 -25 59.5 -25t59 24.5t24.5 59.5
t-25 59z" />
    <glyph glyph-name="uniE60C" unicode="&#xe60c;" 
d="M1009 272v200h-169q-11 33 -27 63l127 128l-142 143l-130 -130q-27 13 -57 22v194h-199v-197q-26 -9 -51 -22l-139 129l-136 -149l133 -122q-15 -28 -24 -58h-180v-199h179q8 -29 22 -55l-121 -122l142 -143l119 120q27 -15 57 -25l-1 -175h200v172q30 9 59 24l122 -125
l143 141l-122 125q16 29 25 60zM517 210q-67 0 -114 47.5t-47 114.5t47 114.5t114 47.5t114 -47.5t47 -114.5t-47 -114.5t-114 -47.5z" />
    <glyph glyph-name="uniE615" unicode="&#xe615;" 
d="M512 896q-140 0 -257.5 -68.5t-186 -186t-68.5 -257.5t68.5 -257.5t186 -186t257.5 -68.5t257.5 68.5t186 186t68.5 257.5t-68.5 257.5t-186 186t-257.5 68.5zM512 -51q-88 0 -169 34.5t-139 92.5t-92.5 139t-34.5 169t34.5 169t92.5 139t139 92.5t169 34.5t169 -34.5
t139 -92.5t92.5 -139t34.5 -169t-34.5 -169t-92.5 -139t-139 -92.5t-169 -34.5zM839 544q-3 7 -10.5 9.5t-15.5 -2.5q-7 -3 -9.5 -10.5t1.5 -14.5q34 -70 34 -142q0 -88 -43.5 -163t-118.5 -118.5t-163 -43.5q-8 0 -14 -5.5t-6 -14.5q0 -7 5.5 -13t14.5 -6q99 0 182.5 48.5
t131.5 132t48 181.5q-3 87 -37 162zM512 709q131 0 226 -93q6 -6 14 -6t14 6q14 14 0 28q-105 102 -254 102q-8 0 -14 -5.5t-6 -13.5t6 -13t14 -5zM386 85q-90 38 -144.5 120t-54.5 179q0 94 51.5 174.5t137.5 120.5q7 3 10 11t0 15t-10.5 10t-15.5 0q-96 -44 -153 -134.5
t-57 -196.5q0 -110 60.5 -201t161.5 -134q2 -2 8 -2q12 0 18 12q4 19 -12 26zM386 85zM457 311q10 0 16 6q18 18 4 43q-2 2 -6.5 8t-14 18t-19.5 24q-2 2 -5 5.5t-5 5.5v6h28q17 0 22 14v-59q0 -22 7 -30q6 -7 22 -7h2h156h6q15 0 23 7.5t8 29.5v148q0 22 -10 29
q-12 13 -35 10h-144q-20 0 -28 -10q-7 -8 -7 -31v-63q-5 11 -22 15h-28v44h6q2 1 7 2t7 2q29 6 26 31v0q-7 22 -30 22h-6q-47 -10 -92 -14h-14q-30 -6 -30 -33v0q5 -22 28 -22h8h17q4 0 9 1t7 1v-35h-41q-25 -3 -28 -28q0 -28 26 -28h39q-18 -70 -59 -141q-7 -17 -4 -25.5
t12 -12.5q8 -4 14 -4q12 0 25 14q12 20 16 34v-93q0 -23 28 -26v0q27 3 27 24v130q2 -4 6 -8q7 1 15 -1.5t11 -2.5zM536 412v102q0 6 4 6h98l6 -4v-102q0 -4 -4 -4h-98h-2h-2q-2 -2 -2 2zM559 341q-12 4 -15 4q-17 0 -26 -18q-37 -64 -69 -97q-23 -22 -4 -41v0q11 -8 22 -8
q10 0 23 10q54 60 79 108q18 27 -10 42zM719 230q-31 63 -67 107v0q-21 17 -42 6q-10 -8 -13 -18q-4 -10 6 -20q23 -31 65 -98q9 -16 23 -16q8 0 12 2v0q25 13 16 37z" />
    <glyph glyph-name="uniE619" unicode="&#xe619;" 
d="M899 160l-66 51q-18 15 -18 38v235q0 62 -24 118q-23 54 -65 96t-96 65q-20 8 -41 14v33q0 32 -22.5 54.5t-54.5 22.5t-54.5 -22.5t-22.5 -54.5v-33q-21 -6 -41 -14q-54 -23 -96 -65t-65 -96q-24 -56 -24 -118v-235q0 -23 -18 -38l-66 -51q-19 -15 -25 -38
q-6 -21 1.5 -42t24.5 -34q19 -15 44 -15h684q25 0 44 15q17 13 24.5 34t1.5 42q-6 23 -25 38v0zM800 169l66 -51q10 -8 5.5 -20.5t-17.5 -12.5h-684q-13 0 -17.5 12.5t6.5 20.5l65 51q40 30 40 80v235q0 103 72.5 176t175.5 73t176 -73t73 -176v-235q0 -50 39 -80zM512 833
q10 0 16.5 -7t6.5 -16v-20h-46v20q0 9 6.5 16t16.5 7zM512 833zM410 -17q0 -42 30 -72t72 -30t72 30t30 72v2h-204v-2zM410 -17zM246 764q8 7 9.5 18t-5.5 20q-9 10 -21 10q-10 0 -17 -6q-73 -59 -118 -140q-47 -84 -57 -179q-1 -11 6 -19.5t18 -10.5h3q10 0 18 7t9 17
q9 84 49 157t106 126zM246 764zM930 666q-45 81 -118 140q-7 6 -17 6q-12 0 -21 -10q-7 -9 -5.5 -20t9.5 -18q66 -53 106 -126t49 -157q1 -10 9 -17t18 -7h3q11 2 18 10.5t6 19.5q-10 95 -57 179zM930 666z" />
    <glyph glyph-name="uniE61B" unicode="&#xe61b;" horiz-adv-x="1025" 
d="M116.5 665q-78.5 -82 -105 -190t4.5 -215t112.5 -185.5t189.5 -105t215 4.5t185.5 112.5t105 190t-4 215t-112.5 185.5t-190 105t-215 -4.5t-185.5 -112.5zM610.5 191q-76.5 -80 -187.5 -82.5t-190.5 74.5t-82 187.5t74.5 190.5t187.5 82t190.5 -74.5t82 -187
t-74.5 -190.5zM627 44l217 -208q32 -30 76 -29t74.5 32.5t30 76t-32.5 74.5l-217 208z" />
    <glyph glyph-name="uniE61D" unicode="&#xe61d;" 
d="M299 610q0 38 14.5 74.5t35.5 60.5q32 39 76.5 55.5t87 8t80 -32t60 -68t22.5 -98.5q0 -109 -85 -160q-73 -44 -158 -20q-87 24 -119 103q-14 35 -14 77zM5 -116q38 4 53 14t17.5 31t2.5 47t12.5 71.5t41.5 93.5q40 66 87 111t111 74q7 3 18 8t14 6.5t10 4t8 2.5t7 1
t8 -0.5t9.5 -2.5t13 -3t16.5 -4.5t22 -5.5q23 -3 43.5 -2t35.5 7.5t34 8.5t39 -1t50.5 -20.5t68.5 -48.5q18 -15 31.5 -31.5t19 -23t23.5 -11t54 -5.5q-1 30 -11 56t-23 43.5t-40 38t-47 32.5t-59 33q117 180 58 323q-39 96 -140 139q-106 45 -208 5q-97 -37 -140 -141
q-21 -47 -24 -93.5t9.5 -89t28.5 -74t40 -69.5q-73 -41 -120 -82t-89 -107q-55 -87 -70 -144t-15 -191v0zM724 -14q-30 8 -53.5 27.5t-36.5 39.5t-36.5 39.5t-53.5 28.5q-13 -17 -14.5 -32.5t7 -30.5t19 -26.5t25.5 -27t22 -25.5q37 -51 55 -71.5t34 -23.5h12q9 2 19 8.5
t24.5 21t27.5 29t37.5 41t46.5 48.5q14 15 52.5 52t63 64t43.5 57l-45 54q-52 -36 -144.5 -132.5t-104.5 -140.5v0z" />
    <glyph glyph-name="uniE621" unicode="&#xe621;" 
d="M577 108h-21v5q-18 10 -33 43v1q-8 19 -12.5 24t-11.5 5h-30q-76 0 -129.5 54.5t-53.5 131.5v34q0 77 53.5 132t129.5 55h117q76 0 130 -55t54 -132v-34q0 -61 -36 -110l-1 -1l-35 -37l-1 -1q-22 -18 -38 -38q-7 -9 -19 -27v-1q-21 -32 -34 -40q-14 -9 -29 -9zM469 550
q-58 0 -99 -42.5t-41 -101.5v-34q0 -59 41 -101t99 -42h30q14 0 25 -5t18.5 -15t11.5 -16.5t9 -19.5q9 -20 13 -22h1h1q2 0 5 2q5 4 21 27v1q14 21 22 31q19 24 43 44l31 32q27 38 27 84v34q0 59 -41.5 101.5t-99.5 42.5h-117zM285 50q-10 0 -18 7q-68 65 -104.5 148.5
t-36.5 175.5t36.5 176t104.5 149q7 7 17.5 7t17.5 -7t7 -17t-7 -17q-61 -58 -94 -133t-33 -157.5t33 -157.5t94 -133q7 -7 7.5 -17t-7.5 -17q-7 -7 -17 -7zM755.5 50q-10.5 0 -17.5 7t-7 17t7 17q62 58 94.5 133t32.5 157.5t-32.5 157.5t-94.5 133q-7 7 -7 17t7 17t17.5 7
t17.5 -7q69 -65 105.5 -149t36.5 -176t-36.5 -175.5t-105.5 -148.5q-7 -7 -17.5 -7zM825.5 -41q-10.5 0 -17.5 7t-7 17t7 17q81 76 123.5 174.5t42.5 206.5t-42.5 206.5t-123.5 174.5q-7 7 -7 17t7 17t17.5 7t17.5 -7q88 -83 134.5 -190t46.5 -224.5t-46.5 -225
t-134.5 -190.5q-7 -7 -17.5 -7zM198 -41q-10 0 -17 7q-88 83 -134.5 190.5t-46.5 225t46.5 224.5t134.5 190q7 7 17.5 7t17.5 -7t7 -17t-7 -17q-81 -76 -123.5 -174.5t-42.5 -206.5t42.5 -206.5t123.5 -174.5q7 -7 7 -17t-7 -17t-18 -7zM461.5 353q-18.5 0 -31.5 13
t-13 31.5t13 31.5t31.5 13t31.5 -13t13 -31.5t-13 -31.5t-31.5 -13zM592 353q-18 0 -31 13t-13 31.5t13 31.5t31.5 13t31.5 -13t13 -31.5t-13 -31.5t-32 -13z" />
    <glyph glyph-name="uniE623" unicode="&#xe623;" 
d="M816.5 -41q-13.5 0 -22.5 9l-214 214q-9 9 -9 22.5t9 23t22.5 9.5t22.5 -10l192 -191l33 33l-191 191q-9 10 -9 23t9.5 22.5t22.5 9.5t22 -10l214 -213q9 -9 9 -22.5t-9 -22.5l-79 -79q-9 -9 -22.5 -9zM591 768q2 6 2 13v0q-1 6 -4 11q0 1 -1 2q-3 5 -6 8q0 1 -2 2h-1
q-5 4 -6 4h-1l-1 1q-85 35 -175 17t-156 -84v-1l-1.5 -1.5l-1.5 -1.5h-1l-162 -162q-10 -9 -10 -22t10 -23l98 -98q9 -10 22.5 -10t22.5 10l56 56l68 -68q10 -10 23 -10t22.5 9.5t9.5 23t-9 22.5l-91 91q-10 9 -23 9t-22 -9l-56 -56l-53 53l139 138q0 1 0.5 2t1 1t1.5 1l1 1
q60 60 145 69q-2 -2 -6 -5q-15 -12 -26 -22v-1l-1 -1q-29 -30 -50 -65q-3 -6 -7 -12l1 -1q-20 -39 0 -78q2 -4 6 -8l1 -1q0 -1 1 -2l70 -70q10 -9 23 -9t22.5 9t9.5 22.5t-9 22.5l-68 67q-4 10 1 19v1q4 7 5 8q16 29 40 52q1 1 13 12q47 39 106 43h2q6 1 10 3h2v1q5 3 8 6v1
h1q4 5 5 8v2h1zM290 -64q-44 0 -83 18q-15 8 -18 24t9 28l88 88l-33 33l-88 -87q-12 -12 -28 -9q-17 3 -23 18q-25 55 -14 114t53 101q37 38 90 50.5t104 -3.5l238 239q-16 51 -3.5 103.5t50.5 90.5q56 56 136 56q41 0 79 -17q16 -7 19 -23.5t-9 -28.5l-89 -89l33 -33l89 90
q12 11 28.5 8.5t23.5 -17.5q26 -55 15.5 -115.5t-53.5 -102.5q-56 -56 -135 -56q-31 0 -61 10l-237 -238q17 -51 4.5 -104.5t-50.5 -91.5q-56 -56 -135 -56zM283 0q56 -3 97 37q28 29 35 69t-11 77q-9 20 7 36l267 267q15 16 36 6q36 -17 76.5 -10t68.5 35q40 40 37 97
l-72 -73q-10 -9 -23 -9t-23 9l-78 79q-9 9 -9 22t9 23l71 71q-55 1 -93 -37q-29 -29 -36 -68t10 -76q9 -20 -7 -36l-268 -268q-15 -15 -36 -6q-35 16 -75.5 9t-67.5 -35q-39 -39 -38 -94l70 70q10 9 23 9t23 -9l78 -78q9 -10 9 -23t-9 -23z" />
    <glyph glyph-name="uniE62B" unicode="&#xe62b;" 
d="M960 101q-73 61 -118 165q-50 116 -53 285q-2 152 -147 225q-17 8 -55 19q-22 7 -26 9l-7 2v7q3 35 -12 52q-10 11 -28 11q-23 0 -35 -15q-15 -16 -10 -47l2 -8l-8 -2q-10 -4 -27 -9q-39 -12 -56 -20q-142 -73 -145 -223q-2 -87 -17 -169q-32 -171 -149 -278
q-11 -10 -12 -16t6 -18q18 -33 54 -35h8h13h237l2 -8q15 -68 47 -100.5t86 -34.5l5 -1q41 0 74 25q55 41 57 109v10h173h83q23 0 40 12t23 32q4 13 -5 21zM513 -82l-3 1q-42 1 -73.5 31t-31.5 69q0 7 6 16l1 1q1 2 2 3l6 12l10 -11q0 -1 2 -3q8 -7 9 -14q6 -31 20.5 -46
t46.5 -22q6 -1 15 -8q2 -3 3 -4l10 -7z" />
    <glyph glyph-name="uniE63E" unicode="&#xe63e;" 
d="M520 513q-92 0 -157 -65t-65 -156.5t65 -156.5t157 -65t157 65t65 156.5t-65 156.5t-157 65zM518 191q-42 0 -72 30t-30 71.5t30 71.5t72 30t71.5 -30t29.5 -71.5t-29.5 -71.5t-71.5 -30zM943 393h-54q-13 47 -37 89l38 38q24 24 24 57.5t-24 56.5l-28 29
q-24 23 -57.5 23t-56.5 -23l-38 -38q-43 24 -90 37v54q0 33 -23.5 56.5t-56.5 23.5h-41q-33 0 -56.5 -23.5t-23.5 -56.5v-54q-47 -13 -90 -37l-38 38q-23 23 -56.5 23t-56.5 -23l-29 -29q-23 -23 -23 -56.5t23 -57.5l38 -38q-24 -42 -37 -89h-54q-33 0 -56.5 -23.5
t-23.5 -56.5v-41q0 -33 23.5 -56.5t56.5 -23.5h54q13 -47 38 -90l-39 -38q-23 -24 -23 -57t23 -57l29 -29q23 -23 56.5 -23t56.5 23l39 39q42 -24 89 -36v-55q0 -33 23.5 -56.5t56.5 -23.5h41q33 0 56.5 23.5t23.5 56.5v54q47 13 89 37l39 -39q23 -23 56.5 -23t57.5 23
l28 29q24 24 24 57t-24 57l-38 38q24 43 37 90h54q33 0 56.5 23.5t23.5 56.5v41q0 33 -23.5 56.5t-56.5 23.5zM518.5 30q-108.5 0 -185.5 77t-77 185.5t77 185.5t185.5 77t185.5 -77t77 -185.5t-77 -185.5t-185.5 -77z" />
    <glyph glyph-name="uniE64C" unicode="&#xe64c;" 
d="M511 806q-103 0 -196.5 -40t-161 -107.5t-107.5 -161t-40 -196.5t40 -196.5t107.5 -161.5t161 -108t196.5 -40t196.5 40t161.5 108t108 161.5t40 196.5t-40 196.5t-108 161t-161.5 107.5t-196.5 40zM511 -137q-89 0 -170 34.5t-140 93t-93.5 140t-34.5 170.5t34.5 170
t93.5 140t140 93.5t170 34.5t170.5 -34.5t140 -93.5t93 -140t34.5 -170t-34.5 -170.5t-93 -140t-140 -93t-170.5 -34.5zM533 252v-91q43 6 43 43q0 30 -43 48zM511.5 646q-94.5 0 -174.5 -46.5t-126.5 -126.5t-46.5 -174.5t46.5 -174.5t126.5 -126.5t174.5 -46.5t174.5 46.5
t126.5 126.5t46.5 174.5t-46.5 174.5t-126.5 126.5t-174.5 46.5zM624 125.5q-32 -30.5 -91 -37.5v-65h-44v63q-62 1 -115 28v84q18 -14 52.5 -26.5t62.5 -13.5v110q-71 26 -97 56.5t-26 74.5q0 48 33.5 81.5t89.5 38.5v56h44v-55q63 -3 95 -20v-82q-42 26 -95 31v-114
q66 -24 94.5 -54.5t28.5 -74.5q0 -50 -32 -80.5zM447 406q0 -31 42 -52v96q-42 -7 -42 -44z" />
    <glyph glyph-name="uniE64E" unicode="&#xe64e;" horiz-adv-x="1025" 
d="M27 421h5q12 0 21 8t11 20q21 148 128 255t255 128q13 2 21 12.5t6 23.5t-12.5 21t-23.5 6q-169 -24 -291 -146t-147 -291q-2 -13 6 -24t21 -13zM447 -64q-148 21 -255 128t-128 255q-2 13 -12.5 21t-24.5 6q-13 -2 -21 -12.5t-6 -23.5q25 -169 147 -291t291 -147h5
q11 0 20.5 8t10.5 20q2 13 -6 23.5t-21 12.5zM996 346q-13 2 -23.5 -6t-12.5 -21q-21 -148 -128 -255t-255 -128q-14 -2 -21.5 -12.5t-6.5 -23.5q2 -12 11 -20t21 -8h5q169 25 291 147t146 291q2 13 -6 23.5t-21 12.5zM577 832q148 -21 255 -128t128 -255q2 -12 11 -20
t21 -8h4q13 2 21 13t6 24q-24 169 -146 291t-291 146q-13 2 -24 -6t-12.5 -21t6 -23.5t21.5 -12.5zM832 384q0 87 -43 160.5t-116.5 116.5t-160.5 43t-160.5 -43t-116.5 -116.5t-43 -160.5t43 -160.5t116.5 -116.5t160.5 -43t160.5 43t116.5 116.5t43 160.5zM512 128
q-106 0 -181 75t-75 181t75 181t181 75t181 -75t75 -181t-75 -181t-181 -75zM512 512q-53 0 -90.5 -37.5t-37.5 -90.5t37.5 -90.5t90.5 -37.5t90.5 37.5t37.5 90.5t-37.5 90.5t-90.5 37.5zM511.5 320q-26.5 0 -45 18.5t-18.5 45t18.5 45.5t45 19t45.5 -19t19 -45.5t-19 -45
t-45.5 -18.5z" />
    <glyph glyph-name="uniE654" unicode="&#xe654;" 
d="M512 384zM525 329zM752 355v57h209v-57h-209zM690 119l28 49l181 -104l-28 -49zM719 597l-29 49l179 106l29 -48zM234 546l416 285v-896l-416 285v326zM65 529h112v-291h-112v291z" />
    <glyph glyph-name="uniE656" unicode="&#xe656;" 
d="M536 761h-531q-5 0 -5 -5v-912q0 -5 5 -5h181v177h168v-177h182q4 0 4 5v912q0 5 -4 5zM231 149h-128v126h128v-126zM231 338h-128v126h128v-126zM231 527h-128v127h128v-127zM437 149h-128v126h128v-126zM437 338h-128v126h128v-126zM437 527h-128v127h128v-127z
M997 464h-350q-11 0 -18.5 -7.5t-7.5 -18.5v-596q0 -3 2 -3h141v117h119v-117h138q3 0 3 3v596q0 11 -8 18.5t-19 7.5zM969 54h-295v63h295v-63zM969 180h-295v63h295v-63zM969 306h-295v63h295v-63z" />
    <glyph glyph-name="uniE658" unicode="&#xe658;" horiz-adv-x="1228" 
d="M1092 896h-955q-57 0 -97 -40t-40 -97v-750q0 -57 40 -97t97 -40h955q57 0 97 40t40 97v750q0 57 -40 97t-97 40zM1161 9q0 -31 -19 -50t-50 -19h-955q-31 0 -50 19t-19 50v27q0 29 16.5 57.5t38.5 44.5l239 150q25 16 57.5 16t58.5 -16l68 -47q26 -16 57.5 -16t51.5 16
l192 225q20 15 54 15t55 -15l150 -109q25 -15 40 -46.5t15 -63.5v-238zM1161 404q-3 3 -7 5.5t-5.5 4t-1.5 4.5l-150 109q-41 31 -95.5 31t-95.5 -31l-192 -232q-5 -5 -17 -5t-17 5l-68 48q-35 30 -89.5 31.5t-94.5 -24.5l-239 -150q-4 -4 -10.5 -7.5t-10.5 -6.5v573
q0 27 19.5 48t49.5 21h955q31 0 50 -19t19 -50v-355zM273 691q-56 0 -96 -40t-40 -96.5t40 -96.5t96 -40t96.5 40t40.5 96.5t-40.5 96.5t-96.5 40zM273 486q-31 0 -49.5 19t-18.5 49.5t18.5 49.5t49.5 19t49.5 -19t18.5 -49.5t-18.5 -49.5t-49.5 -19z" />
    <glyph glyph-name="uniE65B" unicode="&#xe65b;" horiz-adv-x="1071" 
d="M500 812q-10 0 -22 -0.5t-19.5 -8.5t-7.5 -19.5t9 -19t20 -7.5q12 1 20 1q105 0 200 -39.5t163.5 -106t109.5 -158.5t41 -193q0 -126 -61 -234.5t-165 -176.5q-10 -7 -12 -18t4 -20q8 -12 23 -12q9 0 16 5q116 75 183.5 195.5t67.5 260.5q0 112 -45 214t-121.5 176
t-182 117.5t-221.5 43.5zM526 284h3h1h126q6 0 6 6v133q0 4 -7 6h-127q-6 0 -6 -8v-131v-1q-1 -3 0 -4t4 -1zM483.5 722q-98.5 0 -188 -37t-154 -99.5t-103 -149t-38.5 -181.5t38.5 -181.5t103 -149t154 -99.5t188 -37t188 37t154 99.5t103 149t38.5 181.5t-38.5 181.5
t-103 149t-154 99.5t-188 37zM393 179q-3 4 -8 10v-166v-1q-3 -28 -36 -31h-1q-35 3 -35 32v119q-10 -25 -22 -43q-14 -19 -33 -19q-8 0 -17 4l-1 1q-29 15 -11 49q49 78 78 182h-51q-32 0 -32 36q3 34 36 36h53v46q-9 -2 -21 -3h-1h-21q-6 -1 -10 -1q-31 0 -36 27v1
q0 35 38 43h18q79 9 118 18h1h8q29 0 37 -28l1 -1v-1q2 -33 -33 -40q-11 -3 -18 -5h-9v-56h35q20 -2 27 -19v80q-2 27 10 40t36 12h187q31 1 45 -14q12 -13 11 -38v-190q1 -24 -10 -37q-10 -10 -30 -10h-7h-201h-3q-18 0 -27 10q-12 12 -11 37v75q-7 -18 -28 -18h-34v-9
q7 -9 12 -16q44 -55 51 -64v-1q18 -32 -5 -54v-1q-11 -8 -22 -8q-15 0 -28 16zM568 146q-40 -73 -103 -140q-16 -13 -31 -13t-29 10v1q-24 26 4 53q46 46 90 125q14 23 34 23q9 0 19 -5h1q32 -21 15 -54zM738 9h-1q-7 -3 -14 -3q-18 0 -30 21q-48 79 -83 125q-10 14 -8 26
q2 13 18 24q25 15 52 -7l1 -1q47 -60 85 -136q10 -31 -20 -49z" />
    <glyph glyph-name="uniE665" unicode="&#xe665;" horiz-adv-x="1291" 
d="M646 692q42 0 72 30t30 72t-30 72t-72 30t-72 -30t-30 -72t30 -72t72 -30zM1218 604q-30 0 -51 -21t-21 -51q0 -41 36 -62l-344 -119l-193 341l-194 -341l-341 119q14 8 24.5 26.5t10.5 35.5q0 30 -21 51t-51 21v0q-30 0 -51.5 -21t-21.5 -51v0q0 -30 21.5 -51.5
t51.5 -21.5q15 0 29 7l139 -497h806l142 496q14 -6 29 -6q30 0 51.5 21.5t21.5 51.5v0q0 30 -21 51t-51 21h-1zM241 -78h808v-50h-808v50z" />
    <glyph glyph-name="uniE666" unicode="&#xe666;" horiz-adv-x="1115" 
d="M939 223q-54 0 -98.5 -30.5t-65.5 -79.5l-307 122q5 30 5 44q0 60 -27 110l273 222q51 -66 137 -66q73 0 124 51t51 124.5t-51 124.5t-124 51t-124.5 -51t-51.5 -125v-14l-295 -244q-67 51 -149 51q-98 0 -167 -69.5t-69 -166.5q0 -99 69.5 -168t166.5 -69q60 0 112 28.5
t84 76.5l336 -132q13 -60 61 -100.5t110 -40.5q73 0 124 51t51 124.5t-51 124.5t-124 51zM856 794q33 0 55.5 -23t22.5 -55.5t-22.5 -55t-55.5 -22.5t-55.5 22.5t-22.5 55t22.5 55.5t55.5 23zM236 138q-58 0 -98 41t-40 98q0 58 40.5 98.5t97.5 40.5q59 0 99 -41t40 -98
q0 -58 -40.5 -98.5t-98.5 -40.5zM939 -30q-33 0 -55.5 22.5t-22.5 55t22.5 55.5t55.5 23t55.5 -23t22.5 -55t-23 -55t-55 -23z" />
    <glyph glyph-name="uniE679" unicode="&#xe679;" horiz-adv-x="1261" 
d="M1260 896v-1024h-1260v1024h1260zM55 836v-904h1150v904h-1150zM252 506q49 0 83.5 34.5t34.5 83.5t-34.5 83.5t-83.5 34.5t-83.5 -34.5t-34.5 -83.5t34.5 -83.5t83.5 -34.5zM134 26h985v307l-282 308l-421 -390l-141 153l-141 -153v-225z" />
    <glyph glyph-name="uniE67D" unicode="&#xe67d;" 
d="M931 103l-177 177q55 107 36 232t-108 213q-71 72 -165.5 95.5t-188 -4t-162.5 -101.5t-92 -172t4 -195t98 -168q93 -93 221 -104t232 60l173 -172q28 -28 66.5 -27t65.5 30t26 69t-29 67zM267.5 278.5q-69.5 69.5 -71.5 169.5t65 172.5t163.5 74.5t166.5 -67.5t72 -170
t-65 -172.5t-164 -74t-166.5 67.5z" />
    <glyph glyph-name="uniE680" unicode="&#xe680;" 
d="M736 448q40 0 68 28t28 68t-28 68t-68 28t-68 -28t-28 -68t28 -68t68 -28zM904 768h-784q-23 0 -39.5 -16.5t-16.5 -40.5v-654q0 -24 16.5 -40.5t39.5 -16.5h784q23 0 39.5 16.5t16.5 40.5v654q0 24 -16.5 40.5t-39.5 16.5zM698 373q-11 12 -26 12q-11 0 -25 -11l-38 -32
q-13 -9 -23 -9q-13 0 -22 8q-4 3 -8 8l-108 116q-13 15 -33 15t-34 -15l-253 -305v521q2 10 9 16.5t17 6.5h716q10 0 17.5 -7t7.5 -17l1 -521z" />
    <glyph glyph-name="uniE6C0" unicode="&#xe6c0;" 
d="M271 585q34 75 62 123q25 41 55 71t55 43.5t47 21t34 7.5l12 1q-72 30 -133 19t-111.5 -45.5t-86 -75.5t-55 -71t-19.5 -31l-113 49l63 -360l312 195zM479 200q-81 -13 -136 -15q-140 -5 -216 74l-16 18q8 -52 35 -93t60.5 -64.5t77 -39.5t78 -22t71.5 -8.5t50 -2t20 1.5
l20 -122l268 249l-333 155zM814 447q23 -42 33 -83.5t8.5 -70t-6 -51t-10.5 -33.5l-6 -11q146 103 89 317q-21 78 -55 136l100 71l-341 132l6 -368l109 77q47 -67 73 -116z" />
    <glyph glyph-name="uniE6DF" unicode="&#xe6df;" 
d="M499 -59q-16 0 -27 11q-17 17 -16 61l-2 116q-81 15 -131 65l-1 1q-49 50 -65 131l-116 1h-2q-55 0 -67 28q-3 7 -3.5 13.5t2 13t4.5 12t7.5 12.5t9 11t9.5 11l4 4q24 27 75 75t84 71q28 19 144 22q111 137 284 197q112 38 228 38h3l40 -1v-40q1 -116 -37 -228
q-59 -174 -198 -286q-3 -116 -22 -144q-23 -33 -70.5 -84t-75.5 -76q-1 -1 -4 -3q-36 -32 -57 -32zM141 378h1l162 -2l1 -24q1 -8 3 -21.5t15.5 -46t35.5 -53.5v-1q21 -21 53.5 -34.5t46.5 -16t22 -2.5l23 -2l1 -23l2 -139v-15q5 4 15 13q3 2 4 3q26 23 71.5 71.5t66.5 78.5
q12 21 13 129v12l10 7q56 44 98.5 99.5t66 105t37.5 104t18.5 91.5t4.5 72q-35 -1 -71.5 -5t-91 -18.5t-104.5 -37.5t-105.5 -65.5t-98.5 -98.5l-8 -10h-12q-108 -2 -129 -14q-30 -20 -78.5 -66t-70.5 -71l-4 -4q-9 -10 -13 -15q6 -1 13 -1h2zM260 -63q-12 0 -20 8
q-10 12 -9 36v25l-58 -21q-10 -3 -20 -3q-18 0 -29 11q-17 17 -11 50v1l21 59h-25h-8q-26 0 -34 17q-7 17 6 32l1 1l124 124l10 -37q14 -51 60.5 -97t100.5 -63l36 -11l-125 -125q-9 -7 -20 -7zM276 20v-15l46 45q-46 22 -84.5 60.5t-59.5 82.5l-45 -45h15q23 0 33 -18
q10 -17 -3 -40l-21 -57v-5h3l58 21q13 8 24 8q14 0 24 -10q10 -11 10 -27zM684.5 463q-38.5 0 -65.5 27.5t-27 66t27 66t65.5 27.5t66 -27.5t27.5 -66t-27.5 -66t-66 -27.5zM685 610q-22 0 -38 -15.5t-16 -38t16 -38t38 -15.5t37.5 15.5t15.5 38t-15.5 38t-37.5 15.5z" />
  </font>
</defs>
</svg>
